# xmcd CD database file
#
# Track frame offsets:
#	150
#	15456
#	28068
#	39852
#	52714
#	64543
#	76976
#	90483
#	102024
#	116159
#	129874
#	143516
#	157296
#	170955
#	183834
#	195841
#
# Disc length: 2771 seconds
#
# Revision: 0
# Processed by: cddbd v1.5.2PL0 Copyright (c) Steve Scherf et al.
# Submitted via: CDex 1.51
#
DISCID=bc0ad110
DTITLE=Sarah Vaughan - Body and Soul
DYEAR=1900
DGENRE=Jazz
TTITLE0=Lover Man
TTITLE1=What A Difference A Day Makes
TTITLE2=Mean To Me
TTITLE3=Body and Soul
TTITLE4=My Kinda Love
TTITLE5=You're Not The Kind
TTITLE6=It Might As Well Be Spring
TTITLE7=I'm Scared
TTITLE8=Don't Blame Me
TTITLE9=I Can Make Love To You
TTITLE10=You Go To My Head
TTITLE11=Once In A While
TTITLE12=What More Can A Woman Do
TTITLE13=East Of The Sun
TTITLE14=Were Through
TTITLE15=Signing Off
EXTD=
EXTT0=
EXTT1=
EXTT2=
EXTT3=
EXTT4=
EXTT5=
EXTT6=
EXTT7=
EXTT8=
EXTT9=
EXTT10=
EXTT11=
EXTT12=
EXTT13=
EXTT14=
EXTT15=
PLAYORDER=
